<svg width="22" height="22" viewBox="0 0 22 22" fill="none" xmlns="http://www.w3.org/2000/svg">
<path fill-rule="evenodd" clip-rule="evenodd" d="M7.51697 8.77327L13 19.7716L7.49999 18.4288L2 19.7716L7.51529 8.77327L7.51612 8.77158L7.51697 8.77327Z" fill="white"/>
<path d="M16.5959 7C16.5959 7 16.8333 9.21671 17.7584 10.1418C18.6835 11.0669 20.9002 11.3043 20.9002 11.3043C20.9002 11.3043 18.6835 11.5418 17.7584 12.4669C16.8333 13.392 16.5959 15.6087 16.5959 15.6087C16.5959 15.6087 16.3584 13.392 15.4333 12.4669C14.5082 11.5418 12.2915 11.3043 12.2915 11.3043C12.2915 11.3043 14.5082 11.0669 15.4333 10.1418C16.3584 9.21671 16.5959 7 16.5959 7Z" fill="white"/>
<path d="M13.7263 4C13.7263 4 13.8582 5.23151 14.3721 5.74543C14.8861 6.25936 16.1176 6.3913 16.1176 6.3913C16.1176 6.3913 14.8861 6.52324 14.3721 7.03717C13.8582 7.5511 13.7263 8.78261 13.7263 8.78261C13.7263 8.78261 13.5943 7.5511 13.0804 7.03717C12.5665 6.52324 11.335 6.3913 11.335 6.3913C11.335 6.3913 12.5665 6.25936 13.0804 5.74543C13.5943 5.23151 13.7263 4 13.7263 4Z" fill="white"/>
<path d="M18.509 3C18.509 3 18.5882 3.7389 18.8965 4.04726C19.2049 4.35562 19.9438 4.43478 19.9438 4.43478C19.9438 4.43478 19.2049 4.51395 18.8965 4.8223C18.5882 5.13066 18.509 5.86956 18.509 5.86956C18.509 5.86956 18.4298 5.13066 18.1215 4.8223C17.8131 4.51395 17.0742 4.43478 17.0742 4.43478C17.0742 4.43478 17.8131 4.35562 18.1215 4.04726C18.4298 3.7389 18.509 3 18.509 3Z" fill="white"/>
</svg>
